<svg width="300" height="200" viewBox="0 0 300 200" xmlns="http://www.w3.org/2000/svg">
  <!-- Background -->
  <rect width="300" height="200" fill="#F8FCF8"/>
  
  <!-- Money bag -->
  <path d="M90 40 L110 30 L130 40 L150 30 L170 40 L170 160 Q170 170 160 170 L100 170 Q90 170 90 160 Z" fill="#45B7D1"/>
  <rect x="105" y="50" width="90" height="100" rx="10" fill="#45B7D1"/>
  
  <!-- Money symbols -->
  <circle cx="130" cy="70" r="5" fill="#FFD700"/>
  <circle cx="120" cy="85" r="3" fill="#FFD700"/>
  <circle cx="140" cy="85" r="3" fill="#FFD700"/>
  <circle cx="130" cy="100" r="5" fill="#FFD700"/>
  <circle cx="120" cy="115" r="3" fill="#FFD700"/>
  <circle cx="140" cy="115" r="3" fill="#FFD700"/>
  <circle cx="130" cy="130" r="5" fill="#FFD700"/>
  
  <!-- Delivery truck -->
  <rect x="200" y="120" width="80" height="35" rx="8" fill="#FF6B6B"/>
  <rect x="210" y="100" width="60" height="30" rx="6" fill="#FF6B6B"/>
  <circle cx="220" cy="155" r="10" fill="#333"/>
  <circle cx="260" cy="155" r="10" fill="#333"/>
  
  <!-- Package -->
  <rect x="180" y="110" width="30" height="30" fill="#96CEB4" stroke="#333" stroke-width="2"/>
  <path d="M180 110 L195 100 L210 110" fill="none" stroke="#333" stroke-width="2"/>
  <path d="M195 100 L195 140" fill="none" stroke="#333" stroke-width="2"/>
</svg>
